<?xml version="1.0" encoding="UTF-8" standalone="no"?>
<!-- Created with Inkscape (http://www.inkscape.org/) -->

<svg
   xmlns:dc="http://purl.org/dc/elements/1.1/"
   xmlns:cc="http://creativecommons.org/ns#"
   xmlns:rdf="http://www.w3.org/1999/02/22-rdf-syntax-ns#"
   xmlns:svg="http://www.w3.org/2000/svg"
   xmlns="http://www.w3.org/2000/svg"
   xmlns:sodipodi="http://sodipodi.sourceforge.net/DTD/sodipodi-0.dtd"
   xmlns:inkscape="http://www.inkscape.org/namespaces/inkscape"
   width="134"
   height="134"
   id="svg3805"
   version="1.1"
   inkscape:version="0.48.5 r10040"
   sodipodi:docname="humidity.svg">
  <defs
     id="defs3807" />
  <sodipodi:namedview
     id="base"
     pagecolor="#ffffff"
     bordercolor="#ffffff"
     borderopacity="0.0"
     inkscape:pageopacity="0.0"
     inkscape:pageshadow="0"
     inkscape:zoom="0.98994949"
     inkscape:cx="27.607481"
     inkscape:cy="53.402084"
     inkscape:document-units="px"
     inkscape:current-layer="layer1"
     showgrid="false"
     inkscape:window-width="1366"
     inkscape:window-height="713"
     inkscape:window-x="0"
     inkscape:window-y="27"
     inkscape:window-maximized="1" />
  <metadata
     id="metadata3810">
    <rdf:RDF>
      <cc:Work
         rdf:about="">
        <dc:format>image/svg+xml</dc:format>
        <dc:type
           rdf:resource="http://purl.org/dc/dcmitype/StillImage" />
        <dc:title></dc:title>
      </cc:Work>
    </rdf:RDF>
  </metadata>
  <g
     inkscape:label="Layer 1"
     inkscape:groupmode="layer"
     id="layer1"
     transform="translate(0,-918.3622)">
    <path
       style="fill:#d5f6ff;stroke:#00aad4;stroke-width:6;stroke-linecap:butt;stroke-linejoin:miter;stroke-miterlimit:4;stroke-opacity:1;stroke-dasharray:none"
       d="m 60.62114,925.71426 c -13.925132,0.0568 -26.475049,8.23017 -23.159437,20.31744 -28.238561,-0.63057 -48.211264,28.07527 -13.78682,29.93193 l 27.936446,0.54413 c 4.710394,-5.18592 10.087878,-10.41906 14.935728,-16.20551 5.040704,6.01658 10.706962,11.41937 15.540402,16.81028 l 14.75433,0.30238 C 161.52432,963.05033 119.56151,916.58928 86.441186,938.35219 80.299095,929.47327 70.148865,925.67551 60.62114,925.71426 z"
       id="path3893"
       inkscape:connector-curvature="0"
       sodipodi:nodetypes="scccccccs" />
    <path
       style="color:#000000;fill:#d5f6ff;fill-opacity:1;fill-rule:evenodd;stroke:#00aad4;stroke-width:6;stroke-linecap:butt;stroke-linejoin:miter;stroke-miterlimit:4;stroke-opacity:1;stroke-dasharray:none;stroke-dashoffset:0;marker:none;visibility:visible;display:inline;overflow:visible;enable-background:accumulate"
       d="m 90.973081,1022.7839 c 0,13.4141 -10.874273,24.2884 -24.288369,24.2884 -13.414071,0 -24.288331,-10.8743 -24.288331,-24.2884 0,-13.4141 13.736683,-23.02831 24.288331,-35.6229 10.551673,12.59459 24.288369,22.2088 24.288369,35.6229 z"
       id="path3938-1"
       inkscape:connector-curvature="0"
       sodipodi:nodetypes="ssscs" />
    <path
       sodipodi:type="arc"
       style="color:#000000;fill:#ffffff;fill-opacity:1;fill-rule:evenodd;stroke:none;stroke-width:1.14807248;marker:none;visibility:visible;display:inline;overflow:visible;enable-background:accumulate"
       id="path3963"
       sodipodi:cx="258.49908"
       sodipodi:cy="213.61758"
       sodipodi:rx="4.5914578"
       sodipodi:ry="4.9358172"
       d="m 263.09054,213.61758 a 4.5914578,4.9358172 0 1 1 -9.18291,0 4.5914578,4.9358172 0 1 1 9.18291,0 z"
       transform="matrix(1.5705438,0,0,1.501978,-332.50344,709.91952)" />
  </g>
</svg>
