<?xml version="1.0" encoding="UTF-8" standalone="no"?>
<!-- Created with Inkscape (http://www.inkscape.org/) -->

<svg
   xmlns:dc="http://purl.org/dc/elements/1.1/"
   xmlns:cc="http://creativecommons.org/ns#"
   xmlns:rdf="http://www.w3.org/1999/02/22-rdf-syntax-ns#"
   xmlns:svg="http://www.w3.org/2000/svg"
   xmlns="http://www.w3.org/2000/svg"
   xmlns:sodipodi="http://sodipodi.sourceforge.net/DTD/sodipodi-0.dtd"
   xmlns:inkscape="http://www.inkscape.org/namespaces/inkscape"
   width="134"
   height="134"
   id="svg3805"
   version="1.1"
   inkscape:version="0.48.5 r10040"
   sodipodi:docname="thermometer.svg">
  <defs
     id="defs3807" />
  <sodipodi:namedview
     id="base"
     pagecolor="#ffffff"
     bordercolor="#ffffff"
     borderopacity="0.0"
     inkscape:pageopacity="0.0"
     inkscape:pageshadow="0"
     inkscape:zoom="2.8"
     inkscape:cx="71.021915"
     inkscape:cy="103.39463"
     inkscape:document-units="px"
     inkscape:current-layer="layer1"
     showgrid="false"
     inkscape:window-width="1366"
     inkscape:window-height="713"
     inkscape:window-x="0"
     inkscape:window-y="27"
     inkscape:window-maximized="1" />
  <metadata
     id="metadata3810">
    <rdf:RDF>
      <cc:Work
         rdf:about="">
        <dc:format>image/svg+xml</dc:format>
        <dc:type
           rdf:resource="http://purl.org/dc/dcmitype/StillImage" />
        <dc:title />
      </cc:Work>
    </rdf:RDF>
  </metadata>
  <g
     inkscape:label="Layer 1"
     inkscape:groupmode="layer"
     id="layer1"
     transform="translate(0,-918.3622)">
    <path
       style="text-decoration:none;color:#000000;fill:none;stroke:#000000;stroke-width:6;stroke-linecap:butt;stroke-linejoin:miter;stroke-miterlimit:4;stroke-opacity:1;stroke-dasharray:none;stroke-dashoffset:0;marker:none;visibility:visible;display:inline;overflow:visible;enable-background:accumulate"
       d="m 66.190441,922.33095 c -7.365569,0 -14.749999,4.45406 -14.749999,13.40625 l 0,70.9688 c -5.556738,4.3715 -9.124996,11.1625 -9.124996,18.7812 0,13.1861 10.688876,23.875 23.874995,23.875 13.18612,0 23.875004,-10.6889 23.875004,-23.875 0,-7.8044 -3.36629,-14.7372 -9.156754,-19.0937 0,-23.9484 5e-4,-45.21392 5e-4,-70.6563 0,-8.95219 -7.35318,-13.40625 -14.71875,-13.40625 z"
       id="path4137"
       inkscape:connector-curvature="0"
       sodipodi:nodetypes="sscsssccs" />
    <path
       style="text-decoration:none;color:#000000;fill:#ff2a2a;stroke:#de8787;stroke-width:1;stroke-linecap:butt;stroke-linejoin:miter;stroke-miterlimit:4;stroke-opacity:1;stroke-dasharray:none;stroke-dashoffset:0;marker:none;visibility:visible;display:inline;overflow:visible;enable-background:accumulate"
       d="m 66.190441,960.3703 c -3.38813,0 -6.781249,0.018 -6.781249,4.13594 l 0,45.88726 c 0.0867,0.7654 -0.91806,1.625 -2.6875,3.0625 -3.51884,2.8585 -5.84375,7.1459 -5.84375,12.0312 0,8.4553 6.85722,15.3125 15.312499,15.3125 8.45527,0 15.3125,-6.8572 15.3125,-15.3125 0,-5.0044 -2.22101,-9.3484 -5.875,-12.2187 -0.083,-0.065 -2.48709,-2.1385 -2.65625,-3.0313 0,-11.01611 0,-34.0276 0,-45.73096 0,-4.11796 -3.39313,-4.13594 -6.78125,-4.13594 z"
       id="path4137-8"
       inkscape:connector-curvature="0"
       sodipodi:nodetypes="sscssssscss" />
  </g>
</svg>
